<?xml version="1.0" standalone="no"?>
<!DOCTYPE svg PUBLIC "-//W3C//DTD SVG 20010904//EN"
 "http://www.w3.org/TR/2001/REC-SVG-20010904/DTD/svg10.dtd">
<svg version="1.0" xmlns="http://www.w3.org/2000/svg"
  width="1536pt" height="1536pt" viewBox="0 0 1536 1536"
  preserveAspectRatio="xMidYMid meet">
<g transform="translate(-239.5, 1750) scale(0.13, -0.13)"
fill="#0D1A49" stroke="none">
<path d="M7510 11690 c-107 -60 -230 -129 -272 -152 l-77 -43 -3 -275 c-8
-805 -2 -7350 7 -7358 12 -11 419 -239 492 -276 l52 -26 83 49 c46 26 164 95
263 153 l180 104 2 3815 2 3814 -261 150 c-144 83 -264 151 -267 152 -3 1 -94
-47 -201 -107z"/>
<path d="M6230 11073 c-179 -105 -555 -319 -827 -471 -150 -84 -301 -169 -335
-189 -35 -21 -81 -47 -103 -59 l-40 -22 0 -2978 0 -2979 120 -71 c66 -39 230
-133 365 -209 135 -76 299 -169 365 -207 66 -38 127 -70 135 -71 8 0 34 12 58
27 l42 29 0 1237 0 1237 83 48 c45 27 179 106 298 177 204 121 275 158 299
158 7 0 10 -385 10 -1210 0 -665 2 -1210 5 -1210 3 0 50 26 105 57 63 36 101
64 104 77 3 12 6 1445 6 3186 l0 3165 -87 51 c-49 28 -178 103 -289 167 -110
65 -205 117 -210 117 -5 -1 -52 -26 -104 -57z m468 -2055 l-3 -1013 -165 -93
c-91 -52 -244 -138 -340 -192 l-175 -97 -2 276 c-2 152 -4 606 -5 1008 l-3
733 110 62 c61 34 166 94 235 134 226 131 335 192 343 193 4 1 6 -455 5 -1011z"/>
<path d="M6350 9571 l-95 -57 -6 -405 c-10 -628 -10 -1081 -1 -1077 5 2 57 28
115 58 l107 55 0 615 c0 589 -6 870 -19 870 -3 0 -49 -27 -101 -59z"/>
<path d="M8920 11049 c-63 -38 -188 -111 -277 -162 l-162 -92 -2 -1175 c-3
-1503 -3 -2445 -1 -3972 l2 -1227 98 -55 c54 -31 104 -56 110 -56 9 0 12 284
12 1215 0 668 2 1215 4 1215 7 0 400 -216 444 -244 20 -12 78 -44 127 -71 50
-26 96 -52 103 -58 9 -7 12 -269 12 -1247 l0 -1237 44 -31 c24 -18 49 -32 55
-32 6 0 105 53 219 118 114 65 326 185 472 267 146 81 273 155 283 163 16 14
17 169 17 2993 l0 2978 -32 17 c-68 34 -923 508 -984 545 l-31 19 -22 -65 -21
-65 0 -1580 c0 -869 -3 -1580 -8 -1580 -4 0 -16 6 -27 13 -11 8 -51 31 -90 52
-38 21 -181 101 -317 177 l-248 140 0 1328 0 1328 240 137 c132 75 243 142
247 149 9 13 33 80 30 81 -122 70 -152 85 -165 84 -10 0 -69 -31 -132 -70z"/>
<path d="M9038 10593 l-108 -65 0 -1187 0 -1188 106 -57 c58 -31 107 -56 109
-54 5 6 11 2618 6 2617 -4 -1 -54 -30 -113 -66z"/>
<path d="M6353 6279 l-103 -61 -1 -402 c-4 -1479 -3 -1755 3 -1761 5 -5 213
102 213 109 0 1 -2 490 -5 1088 l-5 1087 -102 -60z"/>
<path d="M8937 6333 c-4 -3 -7 -491 -7 -1084 l0 -1078 48 -27 c26 -15 75 -44
109 -65 34 -20 63 -36 65 -34 2 2 1 495 -2 1096 l-5 1092 -101 54 c-55 29
-104 50 -107 46z"/>
</g>
</svg>
